<svg width="167" height="43" viewBox="0 0 167 43" fill="none" xmlns="http://www.w3.org/2000/svg">
<path d="M62.0562 2.63568C62.0562 11.9479 62.1222 21.2628 62.0562 30.5748C62.0278 34.5851 61.609 29.4201 61.6344 28.4161C61.7983 21.9423 62.9187 15.5846 63.3216 9.13662C63.4458 7.15016 63.3513 5.16857 63.3961 3.18156C63.4773 -0.418276 64.5345 3.15965 65.3315 4.4222C68.7759 9.87841 75.0788 14.1005 80.8643 16.7789C83.6119 18.051 86.9999 17.5307 81.8568 16.3571C72.7815 14.2863 63.0084 13.9885 53.7687 13.9007C40.1666 13.7713 26.5425 14.5266 13.1007 16.6549C10.7616 17.0252 8.43615 17.4883 6.12828 18.0196C4.76605 18.3332 1.09232 18.666 2.20787 19.5083C4.2007 21.0131 7.16527 20.1206 9.65169 20.352C18.9387 21.2162 24.6836 21.7233 34.3156 23.131C65.1796 27.6419 95.7422 34.3418 126.371 40.2022C128.815 40.6699 128.306 40.5992 125.527 40.5992C113.427 40.5992 101.326 40.5992 89.2262 40.5992C84.2719 40.5992 79.3176 40.5992 74.3633 40.5992C73.4162 40.5992 72.6415 40.7663 75.0085 40.351C92.5796 37.2684 110.61 34.5226 127.81 29.7312C129.498 29.2611 128.987 28.2915 127.562 28.0936C126.987 28.0137 130.315 26.0258 130.862 25.5378C140.276 17.1328 153.428 14.6081 165.228 10.675" stroke="#211F26" stroke-width="3" stroke-linecap="round"/>
</svg>
